<?xml version="1.0" encoding="UTF-8"?>
<!DOCTYPE svg PUBLIC "-//W3C//DTD SVG 1.1//EN" "http://www.w3.org/Graphics/SVG/1.1/DTD/svg11.dtd">
<!-- Creator: CorelDRAW Home & Student 2014 -->
<svg xmlns="http://www.w3.org/2000/svg" xml:space="preserve" width="36px" height="36px" version="1.1" style="shape-rendering:geometricPrecision; text-rendering:geometricPrecision; image-rendering:optimizeQuality; fill-rule:evenodd; clip-rule:evenodd"
viewBox="0 0 3600 3600"
 xmlns:xlink="http://www.w3.org/1999/xlink">
 <defs>
  <style type="text/css">
   <![CDATA[
    .fil1 {fill:#505050}
    .fil0 {fill:#B3B3B3}
   ]]>
  </style>
 </defs>
 <g id="Layer_x0020_1">
  <metadata id="CorelCorpID_0Corel-Layer"/>
  <g id="_172893136">
   <circle class="fil0" cx="1800" cy="1800" r="1273"/>
   <path class="fil1" d="M1800 0c994,0 1800,806 1800,1800 0,994 -806,1800 -1800,1800 -994,0 -1800,-806 -1800,-1800 0,-994 806,-1800 1800,-1800zm-167 2443c62,17 98,80 82,142 -17,62 -80,99 -142,82 -152,-40 -287,-120 -394,-227 -54,-54 -101,-115 -140,-182 -97,-10 -183,-79 -210,-179 -27,-100 13,-202 93,-260 -1,-156 42,-308 118,-439 1,-3 2,-5 4,-7 76,-129 184,-238 317,-315 10,-97 79,-183 179,-210 100,-27 202,13 260,92 156,0 307,42 439,118 132,76 244,186 322,322 97,10 183,79 210,179 27,100 -13,202 -93,259 0,117 -23,231 -67,337 -72,174 -200,325 -372,424 -55,32 -126,13 -158,-42 -32,-56 -13,-126 43,-158 126,-73 220,-184 273,-312 29,-70 46,-144 49,-220 -68,-28 -123,-86 -144,-163 -21,-76 -2,-154 44,-212 -57,-89 -134,-162 -223,-213 -89,-51 -190,-82 -295,-86 -28,68 -86,123 -162,144 -77,20 -155,2 -213,-44 -87,56 -159,130 -210,217 -1,2 -2,4 -3,6 -51,89 -81,190 -86,295 68,27 123,86 144,162 21,77 2,155 -43,213 25,40 55,77 88,110 79,79 178,137 290,167z"/>
  </g>
 </g>
</svg>
