<?xml version="1.0" encoding="UTF-8"?>
<!DOCTYPE svg PUBLIC "-//W3C//DTD SVG 1.1//EN" "http://www.w3.org/Graphics/SVG/1.1/DTD/svg11.dtd">
<!-- Creator: CorelDRAW Home & Student 2014 -->
<svg xmlns="http://www.w3.org/2000/svg" xml:space="preserve" width="36px" height="36px" version="1.1" style="shape-rendering:geometricPrecision; text-rendering:geometricPrecision; image-rendering:optimizeQuality; fill-rule:evenodd; clip-rule:evenodd"
viewBox="0 0 3600 3600"
 xmlns:xlink="http://www.w3.org/1999/xlink">
 <defs>
  <style type="text/css">
   <![CDATA[
    .fil1 {fill:#505050}
    .fil0 {fill:#B3B3B3}
   ]]>
  </style>
 </defs>
 <g id="Layer_x0020_1">
  <metadata id="CorelCorpID_0Corel-Layer"/>
  <g id="_345877800">
   <circle class="fil0" cx="1800" cy="1800" r="1273"/>
   <path class="fil1" d="M1800 0c994,0 1800,806 1800,1800 0,994 -806,1800 -1800,1800 -994,0 -1800,-806 -1800,-1800 0,-994 806,-1800 1800,-1800zm221 2581c47,53 76,123 76,200 0,164 -133,297 -297,297 -164,0 -297,-133 -297,-297 0,-77 29,-147 76,-200 -98,-53 -184,-140 -253,-254 -107,-175 -173,-414 -173,-676 0,-124 16,-247 44,-361 30,-116 73,-223 129,-315 33,-54 105,-71 159,-38 55,33 72,104 39,159 -44,71 -78,157 -102,250 -24,96 -36,199 -36,305 0,220 52,416 138,556 75,123 173,199 276,199 103,0 201,-76 276,-199 86,-140 138,-336 138,-556 0,-106 -12,-209 -36,-305 -24,-93 -58,-179 -102,-250 -33,-55 -16,-126 39,-159 54,-33 126,-16 159,38 56,92 99,199 129,315 28,114 44,237 44,361 0,262 -66,501 -173,676 -69,114 -155,201 -253,254z"/>
  </g>
 </g>
</svg>
